<svg xmlns="http://www.w3.org/2000/svg" aria-hidden="true" style="position:absolute;width:0;height:0;overflow:hidden"><defs><symbol id="icon-book" viewBox="0 0 32 32"><path fill="#4440f6" d="M32 16c0 8.837-7.163 16-16 16S0 24.837 0 16 7.163 0 16 0s16 7.163 16 16z" style="fill:var(--color1, #4440f6)"/><path fill="none" stroke="#f4f4f4" stroke-linecap="round" stroke-linejoin="round" d="M8.5 9.25H13a3.004 3.004 0 0 1 3 3v10.5a2.25 2.25 0 0 0-2.25-2.25H8.5V9.25zM23.5 9.25H19a3.004 3.004 0 0 0-3 3v10.5a2.25 2.25 0 0 1 2.25-2.25h5.25V9.25z" style="stroke:var(--color2, #f4f4f4)"/></symbol><symbol id="icon-heart" viewBox="0 0 32 32"><path fill="#4440f6" d="M32 16c0 8.837-7.163 16-16 16S0 24.837 0 16 7.163 0 16 0s16 7.163 16 16z" style="fill:var(--color1, #4440f6)"/><path fill="none" stroke="#f4f4f4" stroke-linecap="round" stroke-linejoin="round" d="M22.63 10.457a4.111 4.111 0 0 0-4.496-.895 4.1 4.1 0 0 0-1.338.895l-.795.795-.795-.795a4.125 4.125 0 0 0-5.836 0 4.125 4.125 0 0 0 0 5.835l6.63 6.63 6.63-6.63a4.111 4.111 0 0 0 .895-4.496 4.116 4.116 0 0 0-.895-1.338v0z" style="stroke:var(--color2, #f4f4f4)"/></symbol><symbol id="icon-home" viewBox="0 0 32 32"><path fill="#4440f6" d="M32 16c0 8.837-7.163 16-16 16S0 24.837 0 16 7.163 0 16 0s16 7.163 16 16z" style="fill:var(--color1, #4440f6)"/><path fill="none" stroke="#f4f4f4" stroke-linecap="round" stroke-linejoin="round" d="M9.25 13.75 16 8.5l6.75 5.25V22a1.503 1.503 0 0 1-1.5 1.5h-10.5a1.503 1.503 0 0 1-1.5-1.5v-8.25z" style="stroke:var(--color2, #f4f4f4)"/><path fill="none" stroke="#f4f4f4" stroke-linecap="round" stroke-linejoin="round" d="M13.75 23.5V16h4.5v7.5" style="stroke:var(--color2, #f4f4f4)"/></symbol></defs></svg>